<svg xmlns="http://www.w3.org/2000/svg" width="666.667" height="624" preserveAspectRatio="xMidYMid meet" version="1.0" viewBox="0 0 500 468"><metadata>Created by potrace 1.16, written by Peter Selinger 2001-2019</metadata><g fill="#000" stroke="none"><path d="M2395 4649 c-16 -5 -43 -11 -60 -14 -49 -9 -127 -36 -180 -63 -27 -15 -53 -26 -57 -27 -4 0 -44 -24 -89 -54 -74 -50 -249 -209 -249 -228 0 -4 -14 -23 -30 -42 -37 -42 -155 -282 -166 -336 -4 -22 -9 -47 -11 -55 -2 -8 -5 -26 -8 -40 -2 -14 -5 -25 -6 -25 -9 0 -14 -254 -5 -300 3 -16 8 -43 11 -60 2 -16 6 -37 8 -45 2 -8 7 -32 12 -53 4 -20 11 -40 16 -43 5 -3 9 -16 9 -29 0 -13 4 -26 9 -30 5 -3 15 -22 22 -43 12 -40 108 -197 149 -247 50 -60 172 -175 185 -175 3 0 11 -5 18 -10 7 -6 22 -19 35 -29 26 -21 285 -151 302 -151 5 0 10 -4 10 -10 0 -5 5 -10 11 -10 6 0 25 -11 43 -25 18 -14 36 -25 39 -25 7 0 38 -24 69 -53 10 -9 20 -17 22 -17 6 0 116 -110 116 -115 0 -2 12 -17 26 -32 36 -38 83 -112 132 -208 44 -86 85 -185 77 -185 -3 0 -1 -8 4 -19 11 -20 24 -74 25 -108 1 -13 4 -23 9 -23 41 0 -64 -49 -118 -55 -5 -1 -26 -5 -45 -10 -86 -20 -306 -21 -435 0 -11 2 -20 4 -20 5 0 1 -7 3 -15 5 -8 1 -35 8 -60 15 -25 7 -47 12 -50 12 -14 0 -40 20 -35 27 3 5 7 24 9 42 16 113 96 302 185 434 36 54 54 104 33 91 -5 -3 -16 3 -25 12 -23 25 -47 44 -47 37 0 -3 -10 3 -22 15 -12 11 -25 20 -30 20 -17 0 -262 122 -305 152 -237 166 -356 300 -463 522 l-48 99 -7 -57 c-4 -32 -7 -70 -7 -84 0 -15 -3 -31 -6 -37 -3 -5 -7 -16 -8 -25 -13 -121 -118 -367 -189 -446 -5 -6 -23 -29 -40 -50 -32 -43 -150 -164 -159 -164 -3 0 -14 -8 -24 -18 -10 -9 -27 -23 -38 -29 -10 -7 -36 -24 -57 -38 -21 -13 -48 -27 -62 -31 -13 -3 -29 -12 -36 -20 -6 -8 -18 -14 -25 -14 -8 0 -22 -4 -32 -10 -9 -5 -42 -20 -72 -34 -312 -137 -524 -399 -609 -752 -26 -105 -25 -325 1 -435 39 -166 115 -332 202 -444 32 -41 143 -154 187 -190 151 -124 347 -208 544 -231 98 -12 350 0 350 16 0 1 9 3 20 5 87 15 222 69 313 126 37 23 69 45 72 48 3 4 21 18 40 31 19 13 37 27 40 30 32 39 340 184 380 179 3 0 17 4 32 10 83 31 470 33 551 2 12 -5 24 -8 27 -8 16 1 129 -42 210 -81 100 -48 163 -88 245 -157 100 -83 297 -181 402 -199 18 -4 42 -10 55 -15 45 -16 260 -22 358 -9 347 46 649 267 813 593 59 117 99 244 114 355 15 108 5 348 -16 403 -6 15 -9 27 -7 27 7 0 -51 146 -85 212 -28 55 -91 156 -124 196 -9 12 -96 98 -135 133 -17 16 -125 92 -165 116 -26 16 -108 53 -127 59 -5 1 -10 3 -13 4 -3 1 -8 3 -12 4 -36 7 -204 102 -211 119 -2 4 -8 7 -13 7 -13 0 -44 27 -134 115 -92 91 -157 179 -209 280 -40 78 -86 201 -79 209 2 2 0 14 -7 25 -11 21 -14 37 -26 131 -14 105 -5 285 21 399 15 67 21 252 11 340 -13 114 -79 299 -142 399 -19 29 -34 55 -34 58 0 3 -6 11 -12 18 -7 8 -20 24 -28 36 -12 18 -114 121 -173 176 -52 47 -210 136 -302 170 -51 19 -56 20 -90 28 -11 2 -20 5 -20 6 0 2 -16 5 -70 16 -50 11 -358 13 -390 3z" transform="translate(0.000000,468.000000) scale(0.100000,-0.100000)"/></g></svg>